<svg id="Camada_1" data-name="Camada 1" xmlns="http://www.w3.org/2000/svg" viewBox="0 0 130 100"><defs><style>.cls-1{fill:#5e7616;}.cls-2{fill:#1f2449;}.cls-3{fill:#292458;}.cls-11,.cls-13,.cls-14,.cls-15,.cls-4{fill:none;stroke-width:0.25px;}.cls-4{stroke:#1e224c;}.cls-13,.cls-4{stroke-miterlimit:10;}.cls-17,.cls-5,.cls-7{fill:#b0d95e;}.cls-5{opacity:0.26;}.cls-6{fill:#6e9414;}.cls-7{opacity:0.49;}.cls-8{fill:#84b927;}.cls-9{fill:#ffd543;}.cls-10{fill:#ffb400;}.cls-11,.cls-13,.cls-14,.cls-15{stroke:#1f2548;}.cls-11{stroke-miterlimit:10;}.cls-12{fill:#1f2548;}.cls-14{stroke-miterlimit:10;}.cls-15{stroke-miterlimit:10;}.cls-16{fill:#e99e00;}.cls-17{opacity:0.59;}</style></defs><rect class="cls-1" x="25.34" y="41.99" width="30.1" height="54.33" transform="translate(-37.17 49.22) rotate(-45.3)"/><path class="cls-2" d="M64.8,77.09,48.26,93.81,15.49,61.38,32,44.66ZM48.25,93.47,64.47,77.09,32,45,15.82,61.38Z"/><path class="cls-3" d="M40.64,70.41a2.41,2.41,0,0,0-.11-1.19A10,10,0,0,0,39.94,68c-.23-.43-.36-.7-.45-.91a1.52,1.52,0,0,1-.12-.66,1.06,1.06,0,0,1,.34-.67l0,0a.8.8,0,0,1,.68-.32,1.47,1.47,0,0,1,.89.41,2.67,2.67,0,0,1,.6.78,3.64,3.64,0,0,1,.42,1.11l0,.23,1.38-.75,0-.13a4.51,4.51,0,0,0-.39-1.12,4.21,4.21,0,0,0-.49-.75.23.23,0,0,1,0-.28l.76-.92a.22.22,0,0,0,0-.3L43,63.24a.23.23,0,0,0-.31,0l-.75.92a.23.23,0,0,1-.28,0A2.64,2.64,0,0,0,40.14,64a2.46,2.46,0,0,0-1.63.92,2.67,2.67,0,0,0-.66,1.32,2.44,2.44,0,0,0,.12,1.2,8,8,0,0,0,.59,1.21,8,8,0,0,1,.47.92,1.42,1.42,0,0,1,.11.68,1.08,1.08,0,0,1-.29.65h0a1,1,0,0,1-.81.39,1.6,1.6,0,0,1-1-.44,2.6,2.6,0,0,1-.72-1A4,4,0,0,1,36,68.32V68l-1.42.7v.11a4.53,4.53,0,0,0,.3,1.59,3.85,3.85,0,0,0,.61,1.06.21.21,0,0,1,0,.28l-.86,1a.21.21,0,0,0,0,.31l.54.44a.21.21,0,0,0,.3,0l.88-1a.21.21,0,0,1,.27,0,2.81,2.81,0,0,0,1.64.3,2.68,2.68,0,0,0,1.69-1A2.6,2.6,0,0,0,40.64,70.41Z"/><path class="cls-3" d="M45.66,74.36a9.4,9.4,0,1,1-.07-13.3A9.41,9.41,0,0,1,45.66,74.36ZM32.45,61.29a9.17,9.17,0,1,0,13-.07A9.19,9.19,0,0,0,32.45,61.29Z"/><path class="cls-4" d="M69,77.9,47.46,99.63,8.51,61.08,30,39.35Z"/><circle class="cls-5" cx="27.36" cy="56.4" r="2.48"/><circle class="cls-5" cx="54.43" cy="82.26" r="2.48"/><rect class="cls-6" x="34.7" y="26.48" width="36.38" height="65.66" transform="translate(-22.96 35.6) rotate(-30.91)"/><path class="cls-2" d="M79.08,75.93,54.69,90.53,26.07,42.73l24.39-14.6ZM54.79,90.14l23.9-14.31L50.36,28.52,26.46,42.83Z"/><path class="cls-3" d="M52.91,60.81a3,3,0,0,0,.17-1.43,12.15,12.15,0,0,0-.37-1.61c-.16-.56-.25-.92-.3-1.19a1.84,1.84,0,0,1,0-.81,1.3,1.3,0,0,1,.58-.7l0,0a1,1,0,0,1,.89-.2,1.73,1.73,0,0,1,.94.72,3.63,3.63,0,0,1,.51,1.07,5.24,5.24,0,0,1,.2,1.42v.29l1.82-.53v-.16a5.26,5.26,0,0,0-.17-1.42,5.46,5.46,0,0,0-.38-1,.25.25,0,0,1,.06-.32L58.06,54a.27.27,0,0,0,0-.37L57.58,53a.27.27,0,0,0-.37,0l-1.13.89a.27.27,0,0,1-.34,0A3.37,3.37,0,0,0,54,53.05a3,3,0,0,0-2.16.67,3.26,3.26,0,0,0-1.13,1.39,2.83,2.83,0,0,0-.17,1.44,9.68,9.68,0,0,0,.38,1.59,9.6,9.6,0,0,1,.31,1.2,1.8,1.8,0,0,1,0,.83,1.35,1.35,0,0,1-.51.69v0a1.26,1.26,0,0,1-1.06.25,2,2,0,0,1-1.12-.8,3.18,3.18,0,0,1-.58-1.41A4.51,4.51,0,0,1,48,57.13l.08-.33-1.86.45,0,.13a5.33,5.33,0,0,0-.06,1.95,4.69,4.69,0,0,0,.44,1.42.26.26,0,0,1-.07.33l-1.28,1a.26.26,0,0,0-.05.37l.52.67a.28.28,0,0,0,.37,0l1.3-1a.27.27,0,0,1,.33,0,3.38,3.38,0,0,0,1.86.79,3.18,3.18,0,0,0,2.25-.72A3.26,3.26,0,0,0,52.91,60.81Z"/><path class="cls-3" d="M57.49,67a11.37,11.37,0,1,1,3.92-15.6A11.37,11.37,0,0,1,57.49,67ZM46,47.72a11.09,11.09,0,1,0,15.2,3.82A11.1,11.1,0,0,0,46,47.72Z"/><path class="cls-4" d="M83.71,78.13,52,97.11,18,40.29l31.7-19Z"/><circle class="cls-7" cx="41.17" cy="39.91" r="2.93"/><circle class="cls-7" cx="63.26" cy="78.68" r="2.93"/><rect class="cls-8" x="45.36" y="12.56" width="38.99" height="64.79" transform="translate(-13.56 36.12) rotate(-28.3)"/><path class="cls-2" d="M91,62,64.15,76.4,38.08,28,64.9,13.56ZM64.28,76,90.56,61.86,64.76,14,38.48,28.1Z"/><path class="cls-3" d="M65.73,47.18A3.16,3.16,0,0,0,66,45.71,12.69,12.69,0,0,0,65.64,44c-.13-.6-.21-1-.25-1.27a2,2,0,0,1,.06-.84,1.22,1.22,0,0,1,.62-.66l0,0a.93.93,0,0,1,.9-.1,2,2,0,0,1,.93.86,3.89,3.89,0,0,1,.47,1.18,5.43,5.43,0,0,1,.15,1.5l0,.29,1.87-.33v-.16a6.33,6.33,0,0,0-.12-1.5,4.7,4.7,0,0,0-.35-1.1A.28.28,0,0,1,70,41.5l1.18-.78a.27.27,0,0,0,.06-.38l-.5-.76a.27.27,0,0,0-.37-.09l-1.18.79a.28.28,0,0,1-.34-.05,3.56,3.56,0,0,0-1.73-1,2.79,2.79,0,0,0-2.22.44A2.94,2.94,0,0,0,63.73,41a3.11,3.11,0,0,0-.24,1.48,12.44,12.44,0,0,0,.33,1.7c.11.43.2.85.27,1.29a1.87,1.87,0,0,1-.08.85,1.24,1.24,0,0,1-.54.67h0a1.21,1.21,0,0,1-1.08.14,2.32,2.32,0,0,1-1.11-1,3.58,3.58,0,0,1-.52-1.53,4.78,4.78,0,0,1,.13-1.85l.1-.35-1.9.26,0,.13a5.7,5.7,0,0,0-.13,2,5.15,5.15,0,0,0,.39,1.53.26.26,0,0,1-.09.33l-1.34.86a.28.28,0,0,0-.06.38l.51.76a.26.26,0,0,0,.36.09L60,47.9a.28.28,0,0,1,.34.05,3.77,3.77,0,0,0,1.85,1,3,3,0,0,0,2.3-.48A3,3,0,0,0,65.73,47.18Z"/><path class="cls-3" d="M70,54.09C64,57.28,56.83,55.44,53.9,50s-.51-12.47,5.41-15.66,13.11-1.34,16,4.11S75.86,50.91,70,54.09ZM59.44,34.58c-5.76,3.11-8.13,10-5.27,15.26s9.88,7.11,15.64,4,8.14-10,5.28-15.26S65.21,31.48,59.44,34.58Z"/><path class="cls-4" d="M95.64,64.22,60.78,83l-31-57.54L64.66,6.68Z"/><path class="cls-9" d="M115.64,48.32c-.25,3.94-3,7.06-6.19,7.26h-.63c-3.51-.2-6.14-3.8-5.89-8,.24-3.9,2.82-7,6-7.26h0a3.09,3.09,0,0,1,.68,0h.14C113.25,40.53,115.88,44.13,115.64,48.32Z"/><path class="cls-10" d="M116.76,48.32c-.24,4-3,7.11-6.19,7.26h-.29l-1.12.05c3.26-.2,5.94-3.32,6.19-7.26.24-4.24-2.39-7.8-5.9-8h-.14l1.12,0h.43C114.37,40.53,117,44.13,116.76,48.32Z"/><ellipse class="cls-11" cx="108.39" cy="47.91" rx="4.29" ry="3.51" transform="translate(53.99 153.19) rotate(-86.52)"/><path class="cls-12" d="M107.7,46.76a1,1,0,0,0,.29.2,4.75,4.75,0,0,0,.49.14c.19,0,.44.15.63.2a2.17,2.17,0,0,1,.44.34,1.42,1.42,0,0,1,0,1.51,1.33,1.33,0,0,1-.78.48l.1.88-.39.05-.1-.83a2.1,2.1,0,0,1-.73-.14,1.94,1.94,0,0,1-.63-.44l.19-.54a1.9,1.9,0,0,0,.63.44,1,1,0,0,0,.64.1.87.87,0,0,0,.58-.25.56.56,0,0,0,.15-.48.53.53,0,0,0-.15-.39.89.89,0,0,0-.29-.2,3.7,3.7,0,0,0-.49-.14c-.19,0-.44-.15-.63-.2a2.61,2.61,0,0,1-.44-.34,1.15,1.15,0,0,1-.19-.68,1.27,1.27,0,0,1,.19-.83,1.2,1.2,0,0,1,.73-.44l-.1-.78.39-.05.1.78a2.43,2.43,0,0,1,.59.1,1.66,1.66,0,0,1,.48.24l-.14.59a2.61,2.61,0,0,0-.54-.25,1,1,0,0,0-.53,0,.6.6,0,0,0-.49.19.44.44,0,0,0-.15.44A.85.85,0,0,0,107.7,46.76Z"/><path class="cls-13" d="M113.93,48.76c-.24,4.19-3.11,7.5-6.57,7.69h-.68c-3.71-.24-6.53-4-6.24-8.52.24-4.14,3-7.36,6.33-7.65h0a3.56,3.56,0,0,1,.73,0h.15C111.4,40.48,114.18,44.28,113.93,48.76Z"/><path class="cls-9" d="M101.08,21.08c-3.22,6.62-10,10.08-15.73,8.09-.2-.1-.39-.15-.59-.25a2.53,2.53,0,0,0-.44-.19c-5.89-2.83-7.89-10.86-4.48-17.93C83,4.28,89.58.91,95.18,2.62h0l1.17.44h0l.25.1C102.49,6,104.49,14,101.08,21.08Z"/><path class="cls-10" d="M103,21.86c-3.22,6.67-10.09,10.08-15.78,8h0l-.49-.2-2-.73c5.7,2,12.52-1.46,15.73-8.08C103.9,13.82,101.91,5.79,96,3l-.24-.1,2,.73h0a7.39,7.39,0,0,1,.78.34C104.39,6.76,106.39,14.8,103,21.86Z"/><ellipse class="cls-14" cx="88.94" cy="15.26" rx="7.94" ry="6.53" transform="translate(36.56 88.74) rotate(-64.25)"/><path class="cls-12" d="M88.56,12.8a2.19,2.19,0,0,0,.39.58c.19.15.39.35.73.59a7.27,7.27,0,0,1,.93.83,1.87,1.87,0,0,1,.48.87,2.18,2.18,0,0,1,0,1.27,2.39,2.39,0,0,1-1,1.36,2.49,2.49,0,0,1-1.66.3L88,20.11l-.69-.2.44-1.51a3,3,0,0,1-1.12-.78,3.87,3.87,0,0,1-.78-1.17l.68-.83a3.87,3.87,0,0,0,.78,1.17,2.84,2.84,0,0,0,1,.64,1.68,1.68,0,0,0,1.17,0,1.21,1.21,0,0,0,.63-.73,1.05,1.05,0,0,0,0-.78,1.3,1.3,0,0,0-.39-.59,7.4,7.4,0,0,0-.73-.58,8.73,8.73,0,0,1-.93-.78,1.9,1.9,0,0,1-.48-.88,2.66,2.66,0,0,1,0-1.26,2.06,2.06,0,0,1,1-1.27,2.63,2.63,0,0,1,1.61-.24L90.61,9l.68.2-.39,1.36a5.56,5.56,0,0,1,.92.54,4.7,4.7,0,0,1,.69.78l-.69.87a3.09,3.09,0,0,0-.78-.87,2.42,2.42,0,0,0-.82-.44,1.47,1.47,0,0,0-1-.05.8.8,0,0,0-.53.63A1,1,0,0,0,88.56,12.8Z"/><path class="cls-13" d="M97.86,20.59c-3.36,7-10.61,10.67-16.65,8.58-.2-.1-.44-.15-.64-.25a4.28,4.28,0,0,1-.48-.24c-6.24-3-8.33-11.5-4.73-18.95C78.67,2.86,85.69-.74,91.63,1.06h0a13.25,13.25,0,0,1,1.27.49h0l.29.1C99.37,4.62,101.47,13.09,97.86,20.59Z"/><path class="cls-9" d="M119.39,26.29c1.07,2.24.49,4.78-1.21,5.85a.36.36,0,0,1-.2.09l-.15.1c-2,.93-4.53-.24-5.65-2.63-1-2.19-.53-4.67,1.12-5.79h0a1,1,0,0,1,.39-.2h0l.1-.05C115.74,22.74,118.27,23.91,119.39,26.29Z"/><path class="cls-10" d="M120,26c1.07,2.24.48,4.77-1.22,5.84h0l-.15.1-.63.34c1.75-1.07,2.29-3.6,1.22-5.84-1.12-2.39-3.66-3.56-5.65-2.63l-.1.05.58-.34h0a1.09,1.09,0,0,0,.25-.15C116.37,22.4,118.91,23.61,120,26Z"/><ellipse class="cls-15" cx="115.3" cy="28.24" rx="2.19" ry="2.68" transform="translate(-1.03 51.88) rotate(-25.25)"/><path class="cls-12" d="M114.57,27.85h.24c.1,0,.2-.05.3-.05a1.16,1.16,0,0,1,.39-.05.83.83,0,0,1,.34.05.46.46,0,0,1,.29.29,1,1,0,0,1,.15.54,1.06,1.06,0,0,1-.3.49l.3.44-.2.14-.29-.44-.44.15a1.63,1.63,0,0,1-.49-.05l0-.34a1.67,1.67,0,0,0,.49.05.54.54,0,0,0,.39-.15.62.62,0,0,0,.24-.29.45.45,0,0,0,0-.34c0-.1-.1-.15-.2-.15h-.24c-.1,0-.2.05-.29.05a3.59,3.59,0,0,0-.39.1.85.85,0,0,1-.35-.05.46.46,0,0,1-.29-.29,1.06,1.06,0,0,1-.14-.54,1,1,0,0,1,.29-.48l-.29-.39.19-.15.29.39a.93.93,0,0,1,.34-.1h.35l.09.34a1.07,1.07,0,0,0-.39.05.72.72,0,0,0-.29.1.31.31,0,0,0-.19.24.33.33,0,0,0,0,.29Q114.42,27.78,114.57,27.85Z"/><path class="cls-13" d="M118.61,27.07c1.12,2.39.54,5.07-1.26,6.19a.36.36,0,0,1-.2.09l-.14.1c-2.1,1-4.78-.24-6-2.77a4.9,4.9,0,0,1,1.16-6.14h0a3.31,3.31,0,0,1,.39-.25h0l.1,0C114.72,23.27,117.4,24.54,118.61,27.07Z"/><path id="Caminho_3675" data-name="Caminho 3675" class="cls-16" d="M93.5,55.06a4.23,4.23,0,0,1,.61-2.37A4.74,4.74,0,0,1,96.4,52a4.4,4.4,0,0,1-2.33-.57,4.74,4.74,0,0,1-.68-2.29,4.17,4.17,0,0,1-.61,2.36,4.21,4.21,0,0,1-2.26.65,4.4,4.4,0,0,1,2.33.57A4.36,4.36,0,0,1,93.5,55.06Z"/><path id="Caminho_3674-2" data-name="Caminho 3674-2" class="cls-16" d="M114,10.15a2,2,0,0,1,1.32-2.39,2.12,2.12,0,0,1,1,0,3.61,3.61,0,0,1-1.85-.44,3.44,3.44,0,0,1-.54-1.85,3.26,3.26,0,0,1-.48,1.9,3.06,3.06,0,0,1-1.81.49,3.49,3.49,0,0,1,1.85.44A3.94,3.94,0,0,1,114,10.15Z"/><path id="Caminho_3675-2" data-name="Caminho 3675-2" class="cls-16" d="M48.35,8.54A4.93,4.93,0,0,1,49,5.91a5.32,5.32,0,0,1,2.54-.78,4.89,4.89,0,0,1-2.59-.64A5.35,5.35,0,0,1,48.16,2a4.58,4.58,0,0,1-.69,2.63,4.19,4.19,0,0,1-2.53.68,4.85,4.85,0,0,1,2.58.64A4.4,4.4,0,0,1,48.35,8.54Z"/><path id="Caminho_3675-2-2" data-name="Caminho 3675-2" class="cls-16" d="M33.87,97.4a4.35,4.35,0,0,1,.56-2.33,4.65,4.65,0,0,1,2.24-.68,4.34,4.34,0,0,1-2.28-.56,4.66,4.66,0,0,1-.69-2.24,4,4,0,0,1-.6,2.32,3.78,3.78,0,0,1-2.24.61,4.28,4.28,0,0,1,2.28.55A3.92,3.92,0,0,1,33.87,97.4Z"/><path id="Caminho_3675-2-3" data-name="Caminho 3675-2" class="cls-16" d="M22.62,81.62a2.22,2.22,0,0,1,.29-1.21,2.38,2.38,0,0,1,1.16-.35,2.26,2.26,0,0,1-1.19-.29,2.45,2.45,0,0,1-.35-1.16,2,2,0,0,1-.32,1.2,1.82,1.82,0,0,1-1.16.31,2.26,2.26,0,0,1,1.19.29A2.11,2.11,0,0,1,22.62,81.62Z"/><circle class="cls-17" cx="54.25" cy="26.83" r="2.93"/><circle class="cls-17" cx="74.99" cy="64.25" r="2.93"/></svg> 